# xmcd CD database file
#
# Track frame offsets:
#	150
#	47887
#	115265
#	139754
#	170590
#	198017
#
# Disc length: 3026 seconds
#
# Revision: 0
# Processed by: cddbd v1.5.2PL0 Copyright (c) Steve Scherf et al.
# Submitted via: CDex 1.51
#
DISCID=4f0bd006
DTITLE=charles mingus - jump monk
DYEAR=1955
DGENRE=Jazz
TTITLE0=pithecanthropus erectus
TTITLE1=love chant
TTITLE2=a foggy day
TTITLE3=jump monk
TTITLE4=serenade in blue
TTITLE5=work song
EXTD=YEAR: 1955
EXTT0=
EXTT1=
EXTT2=
EXTT3=
EXTT4=
EXTT5=
PLAYORDER=
